<svg xmlns="http://www.w3.org/2000/svg" xmlns:xlink="http://www.w3.org/1999/xlink" x="0px" y="0px" viewBox="0 0 162 152" style="fill: currentColor; stroke: none;" xml:space="preserve" width="162"  height="152" >
<path d="M81,18.4c-1.1,0-2.1,0.9-2.1,2.1c0,1.1,0.9,2.1,2.1,2.1s2.1-0.9,2.1-2.1S82.1,18.4,81,18.4z M81,21.8
	c-0.7,0-1.3-0.6-1.3-1.3c0-0.7,0.6-1.3,1.3-1.3c0.7,0,1.3,0.6,1.3,1.3C82.3,21.2,81.7,21.8,81,21.8z M152.2,44.9
	c-0.1-0.2-0.3-0.2-0.5-0.3c-0.2,0-0.4,0-0.5,0.2c-0.1,0.1-0.2,0.3-0.3,0.5c0,0.2,0,0.4,0.2,0.5c0.1,0.1,0.3,0.2,0.5,0.3
	c-0.2,0.5-1,0.7-1.6,0.7l-30.2,0c-9-12.3-23.5-19.7-38.8-19.7s-29.7,7.4-38.8,19.7l-30.2,0c-0.6,0-1.3-0.2-1.6-0.7
	c0.2,0,0.3-0.1,0.5-0.3c0.3-0.3,0.2-0.8-0.1-1c-0.1-0.1-0.3-0.2-0.5-0.2c-0.2,0-0.4,0.1-0.5,0.3c-0.3,0.3-0.2,0.9-0.2,1.1
	c0.1,1,1.1,1.6,2.5,1.6l30.4,0c0.1,0,0.3-0.1,0.3-0.2C51.6,35.2,65.9,27.9,81,27.9s29.4,7.3,38.2,19.5c0.1,0.1,0.2,0.2,0.3,0.2
	l30.4,0c1.3,0,2.3-0.7,2.5-1.6C152.4,45.8,152.4,45.2,152.2,44.9z M124.4,37.3L124.4,37.3c-1.2,0.3-2.3-0.1-3.5-1.3
	c-9.2-9.4-21.4-15.2-34.4-16.5c-0.2,0-0.4,0.1-0.4,0.4c0,0.1,0,0.2,0.1,0.3c0.1,0.1,0.2,0.1,0.3,0.1c12.8,1.3,24.9,7,33.9,16.3
	c0.8,0.7,1.9,1.6,3.3,1.6c0.3,0,0.7,0,1-0.1c1-0.3,1.9-1,2.4-2c0.7-1.5,0.1-3.3-1.4-4c-0.5-0.2-1.4-0.4-2.1,0
	c-0.2,0.1-0.3,0.3-0.4,0.4c-0.1,0.4,0.1,0.8,0.5,0.9c0.2,0.1,0.4,0,0.6,0c0.2-0.1,0.3-0.2,0.4-0.4c0-0.1,0-0.2,0-0.3
	c0.2,0,0.5,0.1,0.6,0.2c1.1,0.5,1.6,1.8,1,2.9C125.9,36.6,125.2,37.1,124.4,37.3z M82.8,16L82.8,16L82.8,16c0.1,0.1,0.2,0.2,0.4,0.2
	h10.9c1,0,2.3-0.2,3-1.5c0.4-0.7,0.5-1.5,0.2-2.3c-0.4-1.2-1.7-1.8-2.9-1.4c-0.3,0.1-0.8,0.4-1,0.8c-0.1,0.1-0.2,0.4-0.1,0.8
	c0.1,0.2,0.2,0.3,0.4,0.4c0.2,0.1,0.4,0.1,0.6,0c0.2-0.1,0.3-0.2,0.4-0.4c0.1-0.2,0.1-0.4,0-0.6c0-0.1-0.1-0.2-0.1-0.2
	c0,0,0.1,0,0.1-0.1c0.4-0.1,0.8-0.1,1.1,0.1c0.3,0.2,0.6,0.5,0.7,0.8c0.2,0.5,0.1,1.1-0.1,1.6c-0.4,0.7-1.1,1-2.3,1.1H83.9l4.1-7
	c0.3-0.6,1.1-1.2,1.7-1.1c-0.1,0.1-0.3,0.2-0.3,0.3c-0.1,0.2-0.1,0.4,0,0.6c0.1,0.4,0.6,0.6,0.9,0.5c0.2-0.1,0.3-0.2,0.4-0.4
	c0.1-0.1,0.1-0.2,0.2-0.4C91,7.2,90.5,6.7,90,6.6c-1.1-0.4-2.3,0.6-2.8,1.4l-4.4,7.6C82.8,15.7,82.8,15.9,82.8,16z M138.7,40.5
	c0.2,0.1,0.4,0,0.6-0.1c0.2-0.1,0.3-0.2,0.4-0.4c0.1-0.2,0-0.4,0-0.6c0-0.1-0.1-0.1-0.1-0.1c0.1,0,0.1-0.1,0.1-0.1
	c0.4-0.1,0.8-0.1,1.1,0.1c0.4,0.2,0.6,0.5,0.8,0.8c0.2,0.5,0.1,1.1-0.1,1.6c-0.4,0.7-1.2,1.1-2.4,1.1h-17.3
	c-9-11.4-22.5-18.5-37-19.6c-0.1,0-0.2,0-0.3,0.1c-0.1,0.1-0.1,0.2-0.1,0.3c0,0.1,0,0.2,0.1,0.3c0.1,0.1,0.2,0.1,0.3,0.1
	c14.3,1,27.7,8.1,36.6,19.4c0.1,0.1,0.2,0.2,0.3,0.2H139c1,0,2.3-0.2,3.1-1.5c0.4-0.7,0.5-1.5,0.2-2.3c-0.4-1.2-1.7-1.8-2.9-1.4
	c-0.3,0.1-0.9,0.5-1.1,1c-0.1,0.2-0.1,0.5,0,0.7C138.4,40.3,138.5,40.5,138.7,40.5z M78,7.4l2.6,4.5c0.1,0.1,0.2,0.2,0.3,0.2
	c0.1,0,0.3-0.1,0.4-0.2L84,7.4c0-0.1,0.1-0.1,0.1-0.2c0.1-0.1,0.1-0.3,0-0.4c0-0.1-0.1-0.1-0.1-0.2L81.4,2c-0.1-0.1-0.2-0.2-0.3-0.2
	l0,0c-0.2,0-0.3,0.1-0.4,0.2L78,6.6c0,0.1-0.1,0.1-0.1,0.2c-0.1,0.1-0.1,0.3,0,0.4C77.9,7.3,78,7.4,78,7.4z M81,3L83.3,7l0,0l0,0
	L81,11L78.7,7l0,0L81,3z M93.9,36c-0.4-0.9-1.1-1.5-2.1-1.9l0,0c-1.5-0.5-3.1,0.4-3.6,1.9c-0.1,0.4-0.2,1.3,0.1,1.8
	c0.1,0.1,0.3,0.4,0.6,0.4c0.2,0,0.4,0,0.6-0.1c0.2-0.1,0.3-0.3,0.3-0.5c0-0.2,0-0.4-0.1-0.6c-0.1-0.2-0.3-0.3-0.5-0.3
	c-0.1,0-0.2,0-0.3,0c0-0.2,0-0.4,0.1-0.6c0.3-1.1,1.5-1.7,2.6-1.3c0.8,0.2,1.3,0.7,1.6,1.4c0.6,1.5,0.1,3.6-0.6,5
	c-1.4,2.8-3.9,4.8-7,5.6c-0.1,0-0.2,0.1-0.3,0.2c-0.1,0.1-0.1,0.2,0,0.3c0,0.2,0.2,0.3,0.4,0.3l0,0l0.1,0c3.3-0.8,6-3,7.5-6
	C94,40.1,94.6,37.7,93.9,36z M76.5,46.8L76.5,46.8c-3-0.7-5.6-2.8-7-5.6c-0.7-1.4-1.2-3.5-0.6-5c0.3-0.7,0.8-1.2,1.6-1.4
	c1.1-0.3,2.2,0.2,2.6,1.3c0,0.2,0.1,0.4,0.1,0.6c-0.1,0-0.2,0-0.3,0c-0.2,0-0.4,0.1-0.5,0.3c-0.1,0.2-0.2,0.4-0.1,0.6
	c0.1,0.4,0.5,0.7,0.9,0.6c0.3-0.1,0.5-0.3,0.6-0.4c0.4-0.6,0.3-1.4,0.1-1.8c-0.5-1.5-2.1-2.3-3.6-1.8c-1,0.3-1.7,1-2.1,1.9
	c-0.7,1.7-0.1,4.1,0.6,5.6c1.5,3,4.2,5.2,7.5,6l0.1,0c0.2,0,0.4-0.1,0.4-0.3c0-0.1,0-0.2,0-0.3S76.6,46.9,76.5,46.8z M104.9,41.8
	c-0.4,0.1-1,0.5-1.2,1c-0.1,0.1-0.2,0.5,0,0.8c0.1,0.2,0.2,0.3,0.4,0.4c0.2,0.1,0.4,0.1,0.6,0c0.2-0.1,0.3-0.2,0.4-0.4
	c0.1-0.2,0.1-0.4,0-0.6c0-0.1-0.1-0.2-0.2-0.2c0.1-0.1,0.2-0.1,0.3-0.2c0.9-0.3,1.9,0.2,2.2,1.1c0.2,0.6,0.2,1.3-0.2,1.9
	c-0.5,0.9-1.3,1.3-2.7,1.3h-9.9c-0.2,0-0.4,0.2-0.4,0.4s0.2,0.4,0.4,0.4h9.9c1.2,0,2.6-0.2,3.4-1.7c0.4-0.8,0.5-1.7,0.2-2.6
	C107.7,42,106.2,41.3,104.9,41.8z M84.4,39.5l-3.1-7.3C81.3,32.1,81.2,32,81,32h0c-0.2,0-0.3,0.1-0.4,0.2l-3.1,7.3
	c-0.1,0.1-0.1,0.2-0.2,0.4c-0.1,0.1-0.1,0.2,0,0.3c0.1,0.1,0.1,0.2,0.2,0.4l3.1,6.9c0.1,0.1,0.2,0.2,0.4,0.2s0.3-0.1,0.4-0.2
	l3.1-6.9l0-0.1c0-0.1,0.1-0.2,0.1-0.3c0.1-0.1,0.1-0.2,0-0.3C84.5,39.7,84.5,39.6,84.4,39.5z M83.7,40.2l-2.7,6l-2.7-6
	c0-0.1-0.1-0.1-0.1-0.2c0-0.1,0.1-0.1,0.1-0.2l2.7-6.4l2.7,6.4c0,0.1,0.1,0.1,0.1,0.2C83.8,40.1,83.7,40.2,83.7,40.2z M37.4,38.1
	c0.3,0.1,0.7,0.1,1,0.1c1.4,0,2.5-0.9,3.3-1.6c9-9.2,21.1-15,33.9-16.3c0.1,0,0.2-0.1,0.3-0.1s0.1-0.2,0.1-0.3
	c0-0.1-0.1-0.2-0.1-0.3c-0.1-0.1-0.2-0.1-0.3-0.1c-13,1.3-25.2,7.1-34.4,16.5c-1.3,1.2-2.4,1.6-3.5,1.3c-0.8-0.2-1.5-0.8-1.8-1.5
	c-0.5-1.1-0.1-2.4,1-2.9c0.2-0.1,0.4-0.1,0.7-0.2c0,0.1,0,0.2,0,0.3c0.1,0.4,0.5,0.6,0.9,0.5c0.4-0.1,0.6-0.5,0.5-0.9
	c-0.1-0.2-0.2-0.3-0.4-0.4c-0.6-0.4-1.6-0.2-2.1,0c-1.5,0.7-2.1,2.5-1.4,4C35.5,37.1,36.3,37.8,37.4,38.1z M67.9,16.2h10.9
	c0.1,0,0.3-0.1,0.4-0.2c0.1-0.1,0.1-0.3,0-0.4L74.8,8c-0.4-0.8-1.6-1.8-2.7-1.4c-0.5,0.2-1,0.7-0.8,1.4c0,0.1,0.1,0.2,0.1,0.4
	c0.1,0.2,0.3,0.3,0.4,0.4c0.4,0.1,0.8-0.1,0.9-0.5c0.1-0.2,0.1-0.4,0-0.6c-0.1-0.1-0.2-0.3-0.3-0.3c0.6-0.2,1.4,0.5,1.7,1.1l4.1,7
	H67.9c-1.2,0-1.9-0.4-2.3-1.1c-0.3-0.5-0.3-1.1-0.1-1.6c0.1-0.4,0.4-0.7,0.7-0.8c0.3-0.2,0.7-0.2,1.1-0.1c0,0,0.1,0,0.1,0.1
	c-0.1,0.1-0.1,0.1-0.1,0.2c-0.1,0.2-0.1,0.4,0,0.6c0.1,0.2,0.2,0.3,0.4,0.4c0.2,0.1,0.4,0.1,0.6,0c0.2-0.1,0.3-0.2,0.4-0.4
	c0.1-0.4,0-0.7-0.1-0.8c-0.2-0.4-0.7-0.7-1-0.8c-0.6-0.2-1.2-0.2-1.7,0.1c-0.5,0.3-1,0.7-1.2,1.3c-0.3,0.7-0.2,1.6,0.2,2.3
	C65.6,16,66.9,16.2,67.9,16.2z M23,43.7h17.5c0.1,0,0.2-0.1,0.3-0.2C49.7,32.2,63,25.2,77.4,24.2c0.2,0,0.4-0.2,0.4-0.4
	c0-0.1-0.1-0.2-0.1-0.3c-0.1-0.1-0.2-0.1-0.3-0.1c-14.5,1-28,8.2-37,19.6H23c-1.2,0-2-0.4-2.4-1.1c-0.3-0.5-0.3-1.1-0.1-1.6
	c0.1-0.4,0.4-0.7,0.8-0.9c0.4-0.2,0.8-0.2,1.1-0.1c0,0,0.1,0,0.1,0.1c0,0-0.1,0.1-0.1,0.1c-0.2,0.4,0,0.8,0.3,1
	c0.2,0.1,0.4,0.1,0.6,0.1c0.2-0.1,0.3-0.2,0.4-0.4c0.1-0.2,0.1-0.4,0-0.7c-0.2-0.5-0.8-0.9-1.1-1c-1.2-0.4-2.5,0.2-2.9,1.4
	c-0.3,0.8-0.2,1.6,0.2,2.3C20.6,43.5,21.9,43.7,23,43.7z M67.4,46.8h-9.9c-1.4,0-2.3-0.4-2.7-1.3c-0.3-0.6-0.4-1.3-0.2-1.9
	c0.3-0.9,1.3-1.4,2.2-1.1c0.1,0,0.2,0.1,0.3,0.2C57.1,42.8,57,42.9,57,43c-0.1,0.2-0.1,0.4,0,0.6c0.1,0.2,0.2,0.3,0.4,0.4
	c0.4,0.2,0.8,0,1-0.4c0.1-0.3,0-0.7,0-0.8c-0.2-0.4-0.8-0.8-1.2-1c-1.3-0.5-2.8,0.2-3.3,1.6c-0.3,0.9-0.2,1.8,0.2,2.6
	c0.8,1.4,2.3,1.7,3.4,1.7h9.9c0.2,0,0.4-0.2,0.4-0.4S67.7,46.8,67.4,46.8z" fill="#DCC69C"></path>
<path d="M94.6,105.1h9.9c1.4,0,2.2,0.4,2.7,1.3c0.3,0.6,0.4,1.3,0.2,1.9c-0.2,0.4-0.5,0.8-0.9,1
	c-0.4,0.2-0.9,0.2-1.3,0.1c-0.1,0-0.2-0.1-0.3-0.2c0.1-0.1,0.1-0.1,0.2-0.2c0.1-0.2,0.1-0.4,0-0.6c-0.1-0.2-0.2-0.3-0.4-0.4
	c-0.2-0.1-0.4-0.1-0.6,0c-0.2,0.1-0.3,0.2-0.4,0.4c-0.1,0.3,0,0.7,0,0.8c0.2,0.4,0.8,0.8,1.2,1c0.3,0.1,0.6,0.1,0.8,0.1
	c1.1,0,2.1-0.7,2.4-1.7c0.3-0.9,0.2-1.8-0.2-2.6c-0.8-1.4-2.3-1.7-3.4-1.7h-9.9c-0.2,0-0.4,0.2-0.4,0.4
	C94.2,105,94.3,105.1,94.6,105.1z M56.3,110.3c0.3,0,0.6-0.1,0.9-0.1c0.4-0.2,1-0.5,1.2-1c0.1-0.1,0.2-0.5,0-0.8
	c-0.1-0.2-0.2-0.3-0.4-0.4c-0.2-0.1-0.4-0.1-0.6,0c-0.2,0.1-0.3,0.2-0.4,0.4c-0.1,0.2-0.1,0.4,0,0.6c0,0.1,0.1,0.2,0.2,0.2
	c-0.1,0.1-0.2,0.1-0.3,0.2c-0.4,0.2-0.9,0.1-1.3-0.1c-0.4-0.2-0.7-0.6-0.9-1c-0.2-0.6-0.2-1.3,0.2-1.9c0.5-0.9,1.3-1.3,2.7-1.3h9.9
	c0.2,0,0.4-0.2,0.4-0.4c0-0.2-0.2-0.4-0.4-0.4h-9.9c-1.2,0-2.6,0.2-3.4,1.7c-0.4,0.8-0.5,1.7-0.2,2.6
	C54.2,109.6,55.2,110.3,56.3,110.3z M68.1,116c0.4,0.9,1.1,1.6,2.1,1.9c0.3,0.1,0.6,0.1,0.9,0.1c1.3,0,2.3-0.8,2.7-2
	c0.1-0.4,0.2-1.3-0.1-1.8c-0.1-0.1-0.3-0.4-0.6-0.4c-0.2,0-0.4,0-0.5,0.1c-0.2,0.1-0.3,0.3-0.3,0.5c-0.1,0.4,0.2,0.8,0.6,0.9
	c0.1,0,0.2,0,0.3,0c0,0.2,0,0.4-0.1,0.6c-0.2,0.5-0.5,0.9-1,1.2c-0.5,0.3-1,0.3-1.6,0.1c-0.8-0.2-1.3-0.7-1.6-1.4
	c-0.6-1.5-0.1-3.6,0.6-5c1.4-2.8,3.9-4.8,7-5.6c0.1,0,0.2-0.1,0.3-0.2s0.1-0.2,0-0.3c0-0.1-0.1-0.2-0.2-0.3c-0.1-0.1-0.2-0.1-0.3,0
	c-3.3,0.8-6,3-7.5,6C68,111.9,67.4,114.2,68.1,116z M23.3,111.5L23.3,111.5c-0.2-0.1-0.4,0-0.6,0.1c-0.4,0.2-0.5,0.6-0.3,1
	c0,0.1,0.1,0.1,0.1,0.1c-0.1,0-0.1,0.1-0.1,0.1c-0.4,0.1-0.8,0.1-1.1-0.1c-0.4-0.2-0.6-0.5-0.8-0.8c-0.2-0.5-0.1-1.1,0.1-1.6
	c0.4-0.7,1.2-1.1,2.4-1.1h17.3c9,11.4,22.5,18.5,37,19.6c0.2,0,0.4-0.2,0.4-0.4c0-0.1,0-0.2-0.1-0.3c-0.1-0.1-0.2-0.1-0.3-0.1
	c-14.3-1-27.7-8.1-36.6-19.4c-0.1-0.1-0.2-0.2-0.3-0.2H23c-1,0-2.3,0.2-3.1,1.5c-0.4,0.7-0.5,1.5-0.2,2.3c0.2,0.6,0.6,1,1.2,1.3
	c0.6,0.3,1.2,0.3,1.8,0.1c0.3-0.1,0.9-0.5,1.1-1c0.1-0.2,0.1-0.5,0-0.7C23.6,111.7,23.5,111.5,23.3,111.5z M77.6,112.5l3.1,7.3
	c0.1,0.2,0.2,0.2,0.4,0.2c0.2,0,0.3-0.1,0.4-0.2l3.1-7.3l0,0c0-0.1,0.1-0.2,0.1-0.3s0.1-0.2,0-0.3c-0.1-0.1-0.1-0.2-0.2-0.4
	l-3.1-6.9c-0.1-0.1-0.2-0.2-0.4-0.2l0,0c-0.2,0-0.3,0.1-0.4,0.2l-3.1,6.9c-0.1,0.1-0.1,0.2-0.2,0.4c-0.1,0.1-0.1,0.2,0,0.3
	C77.5,112.3,77.5,112.4,77.6,112.5z M78.3,111.8l2.7-6l2.7,6c0,0.1,0.1,0.1,0.1,0.2c0,0.1-0.1,0.1-0.1,0.2l-2.7,6.4l-2.7-6.4
	c0-0.1-0.1-0.1-0.1-0.2C78.2,111.9,78.3,111.8,78.3,111.8z M85.5,105.1c3,0.7,5.6,2.8,7,5.6c0.7,1.4,1.2,3.5,0.6,5
	c-0.3,0.7-0.8,1.2-1.6,1.4c-0.5,0.2-1.1,0.1-1.6-0.1c-0.5-0.3-0.9-0.7-1-1.2c0-0.1-0.1-0.4-0.1-0.6c0.1,0,0.2,0,0.3,0
	c0.2,0,0.4-0.1,0.5-0.3c0.1-0.2,0.2-0.4,0.1-0.6c0-0.2-0.1-0.4-0.3-0.5c-0.2-0.1-0.4-0.2-0.5-0.1c-0.3,0.1-0.5,0.3-0.6,0.4
	c-0.4,0.6-0.3,1.4-0.1,1.8c0.4,1.2,1.5,2,2.7,2c0.3,0,0.6,0,0.9-0.1c1-0.3,1.7-1,2.1-1.9c0.7-1.7,0.1-4.1-0.6-5.6
	c-1.5-3-4.2-5.2-7.5-6c-0.1,0-0.2,0-0.3,0c-0.1,0.1-0.2,0.1-0.2,0.3c0,0.1,0,0.2,0,0.3C85.3,105,85.4,105.1,85.5,105.1z M94.1,135.8
	H83.2c-0.1,0-0.3,0.1-0.4,0.2c-0.1,0.1-0.1,0.3,0,0.4l4.4,7.6c0.4,0.7,1.3,1.5,2.2,1.5c0.2,0,0.4,0,0.5-0.1c0.5-0.2,1-0.7,0.8-1.4
	c0-0.1-0.1-0.2-0.1-0.4c-0.1-0.2-0.3-0.3-0.4-0.4c-0.2-0.1-0.4-0.1-0.6,0c-0.2,0.1-0.3,0.2-0.4,0.4c-0.1,0.2-0.1,0.4,0,0.6
	c0.1,0.1,0.2,0.3,0.3,0.3c-0.6,0.2-1.4-0.5-1.7-1.1l-4.1-7h10.2c1.2,0,1.9,0.4,2.3,1.1c0.3,0.5,0.3,1.1,0.1,1.6
	c-0.3,0.8-1.1,1.1-1.8,0.9c0,0-0.1,0-0.1-0.1c0.1-0.1,0.1-0.1,0.1-0.2c0.2-0.4,0-0.8-0.4-1c-0.4-0.1-0.8,0-1,0.4
	c-0.1,0.4,0,0.7,0.1,0.8c0.2,0.4,0.7,0.7,1,0.8c0.6,0.2,1.2,0.2,1.7-0.1c0.5-0.3,1-0.7,1.2-1.3c0.3-0.7,0.2-1.6-0.2-2.3
	C96.4,136,95.1,135.8,94.1,135.8z M139,108.3h-17.5c-0.1,0-0.2,0.1-0.3,0.2c-8.9,11.3-22.2,18.4-36.6,19.4c-0.2,0-0.4,0.2-0.4,0.4
	c0,0.2,0.2,0.4,0.4,0.4c14.5-1,28-8.2,37-19.6H139c1.2,0,2,0.4,2.4,1.1c0.3,0.5,0.3,1.1,0.1,1.6c-0.1,0.4-0.4,0.7-0.8,0.9
	c-0.4,0.2-0.8,0.2-1.1,0.1c0,0-0.1,0-0.1-0.1c0,0,0.1-0.1,0.1-0.1c0.1-0.2,0.1-0.4,0.1-0.6c-0.1-0.2-0.2-0.3-0.4-0.4
	c-0.4-0.2-0.8,0-1,0.3c-0.1,0.2-0.1,0.4,0,0.7c0.2,0.5,0.8,0.9,1.1,1c0.6,0.2,1.2,0.2,1.8-0.1c0.6-0.3,1-0.7,1.2-1.3
	c0.3-0.8,0.2-1.6-0.2-2.3C141.4,108.5,140.1,108.3,139,108.3z M37.6,114.6L37.6,114.6c1.2-0.3,2.3,0.1,3.5,1.3
	c9.2,9.4,21.4,15.2,34.4,16.5c0.2,0,0.4-0.2,0.4-0.4c0-0.1,0-0.2-0.1-0.3c-0.1-0.1-0.2-0.1-0.3-0.1c-12.8-1.3-24.9-7-33.9-16.3
	c-1-1-2.4-2-4.3-1.5c-1,0.3-1.9,1-2.4,2c-0.7,1.5-0.1,3.3,1.4,4c0.5,0.2,1.4,0.4,2.1,0c0.2-0.1,0.3-0.3,0.4-0.4
	c0.1-0.4-0.1-0.8-0.5-0.9c-0.4-0.1-0.8,0.1-0.9,0.5c0,0.1,0,0.2,0,0.3c-0.2,0-0.5-0.1-0.7-0.2c-1.1-0.5-1.6-1.8-1-2.9
	C36.1,115.4,36.8,114.9,37.6,114.6z M124.6,113.9c-1.9-0.5-3.3,0.5-4.3,1.5c-9,9.2-21.1,15-33.9,16.3c-0.1,0-0.2,0.1-0.3,0.1
	c-0.1,0.1-0.1,0.2-0.1,0.3c0,0.2,0.2,0.4,0.4,0.4h0c13-1.3,25.3-7.1,34.4-16.5c1.3-1.2,2.4-1.6,3.5-1.3c0.8,0.2,1.5,0.8,1.8,1.5
	c0.5,1.1,0.1,2.4-1,2.9c-0.2,0.1-0.4,0.1-0.6,0.2c0-0.1,0-0.2,0-0.3c-0.1-0.4-0.5-0.6-0.9-0.5c-0.4,0.1-0.6,0.5-0.5,0.9
	c0.1,0.2,0.2,0.3,0.4,0.4c0.6,0.4,1.6,0.2,2.1,0c1.5-0.7,2.1-2.5,1.4-4C126.5,114.9,125.7,114.1,124.6,113.9z M152.4,106L152.4,106
	L152.4,106c-0.1-1-1.1-1.6-2.5-1.6l-30.4,0c-0.1,0-0.3,0.1-0.3,0.2C110.4,116.7,96.1,124,81,124s-29.4-7.3-38.2-19.5
	c-0.1-0.1-0.2-0.2-0.3-0.2l-30.4,0c-1.3,0-2.3,0.7-2.5,1.6c0,0.2,0,0.8,0.2,1.1c0.1,0.2,0.3,0.2,0.5,0.3s0.4,0,0.5-0.2
	c0.3-0.3,0.3-0.7,0.1-1c-0.1-0.1-0.3-0.2-0.5-0.3c0.3-0.5,1-0.7,1.6-0.7h30.2c9,12.3,23.5,19.7,38.8,19.7s29.7-7.4,38.8-19.7h30.1
	c0.6,0,1.3,0.2,1.6,0.7c-0.2,0-0.3,0.1-0.5,0.3c-0.1,0.2-0.2,0.3-0.2,0.5c0,0.2,0.1,0.4,0.3,0.5c0.1,0.1,0.3,0.2,0.5,0.2
	c0.2,0,0.4-0.1,0.5-0.3C152.4,106.7,152.4,106.1,152.4,106z M79.2,136L79.2,136c-0.1-0.1-0.2-0.2-0.4-0.2H67.9c-1,0-2.3,0.2-3,1.5
	c-0.4,0.7-0.5,1.5-0.2,2.3c0.2,0.6,0.6,1,1.2,1.3c0.5,0.3,1.2,0.3,1.7,0.1c0.3-0.1,0.8-0.4,1-0.8c0.1-0.1,0.2-0.4,0.1-0.8
	c-0.1-0.2-0.2-0.3-0.4-0.4c-0.2-0.1-0.4-0.1-0.6,0c-0.2,0.1-0.3,0.2-0.4,0.4c-0.1,0.2-0.1,0.4,0,0.6c0,0.1,0.1,0.2,0.1,0.2
	c0,0-0.1,0-0.1,0.1c-0.8,0.3-1.6-0.1-1.8-0.9c-0.2-0.5-0.1-1.1,0.1-1.6c0.4-0.7,1.1-1,2.3-1.1h10.2l-4.1,7c-0.3,0.6-1.1,1.2-1.7,1.1
	c0.1-0.1,0.3-0.2,0.3-0.3c0.1-0.2,0.1-0.4,0-0.6c-0.1-0.2-0.2-0.3-0.4-0.4c-0.2-0.1-0.4-0.1-0.6,0c-0.2,0.1-0.3,0.2-0.4,0.4
	c-0.1,0.1-0.1,0.2-0.2,0.4c-0.2,0.7,0.3,1.2,0.8,1.4c0.2,0.1,0.4,0.1,0.5,0.1c0.9,0,1.8-0.8,2.2-1.5l4.4-7.6
	C79.3,136.3,79.3,136.1,79.2,136z M81,133.6c1.1,0,2.1-0.9,2.1-2.1c0-1.1-0.9-2.1-2.1-2.1s-2.1,0.9-2.1,2.1
	C78.9,132.6,79.9,133.6,81,133.6z M81,130.2c0.7,0,1.3,0.6,1.3,1.3s-0.6,1.3-1.3,1.3c-0.7,0-1.3-0.6-1.3-1.3S80.3,130.2,81,130.2z
	 M84,144.5l-2.6-4.5c-0.1-0.1-0.2-0.2-0.3-0.2l0,0c-0.2,0-0.3,0.1-0.4,0.2l-2.6,4.5c0,0.1-0.1,0.1-0.1,0.2c-0.1,0.1-0.1,0.3,0,0.4
	c0,0.1,0.1,0.1,0.1,0.2l2.6,4.5c0.1,0.1,0.2,0.2,0.3,0.2c0.1,0,0.3-0.1,0.4-0.2l2.6-4.5c0-0.1,0.1-0.1,0.1-0.2
	c0.1-0.1,0.1-0.3,0-0.4C84.1,144.7,84,144.6,84,144.5z M81,148.9l-2.3-3.9l0,0l2.3-4l2.3,3.9c0,0,0,0,0,0L81,148.9z" fill="#DCC69C"></path>
<path d="M5.6,53.8h150.8c1.2,0,2.8-0.3,3.7-1.8c0.5-0.8,0.6-1.8,0.2-2.7c0-0.1-0.1-0.1-0.2-0.1c-0.1,0-0.1,0-0.2,0.1
	c-0.1,0.2-0.1,0.4-0.2,0.5c-0.6,1.1-1.7,1.6-3.4,1.6H5.6c-1.7,0-2.8-0.5-3.4-1.6c-0.1-0.2-0.2-0.4-0.2-0.5c0-0.1-0.1-0.1-0.2-0.1
	c-0.1,0-0.1,0-0.2,0.1c-0.3,0.9-0.2,1.9,0.2,2.7C2.8,53.6,4.4,53.8,5.6,53.8z" fill="#DCC69C"></path>
<path d="M156.4,98.1H5.6c-1.2,0-2.8,0.3-3.7,1.8c-0.5,0.8-0.6,1.8-0.2,2.7c0,0.1,0.1,0.1,0.2,0.1c0.1,0,0.1,0,0.2-0.1
	c0.1-0.2,0.1-0.4,0.2-0.5c0.6-1.1,1.7-1.6,3.4-1.6h150.7c1.7,0,2.8,0.5,3.4,1.6c0.1,0.2,0.2,0.4,0.2,0.5c0,0.1,0.1,0.1,0.2,0.1
	c0.1,0,0.1,0,0.2-0.1c0.3-0.9,0.2-1.9-0.2-2.7C159.2,98.4,157.6,98.2,156.4,98.1z" fill="#DCC69C"></path>
<g fill="#DCC69C">
<path d="M14.4,68.7c1.1,0.7,1.6,1.9,1.6,3.5c0,1.2-0.3,2.2-1,3.1c-0.6,0.9-1.6,1.5-2.7,1.9c0,0,0.2,0.1,0.4,0.2
		c0.5,0.3,0.9,0.7,1.3,1.3c0.4,0.6,0.9,1.4,1.4,2.4c0.4,0.8,0.8,1.3,1,1.7c0.3,0.4,0.5,0.6,0.7,0.7l1.3,0.3V85h-3.7
		c-0.2,0-0.5-0.2-0.8-0.7s-0.6-1.2-1.1-2.2c-0.6-1.4-1.2-2.5-1.7-3.3c-0.5-0.8-1.1-1.2-1.6-1.2l-1.7,0v5.8l2.2,0.4V85H3v-1.2l2-0.4
		v-14l-1.8-0.2v-1.5H6c0.3,0,0.6,0,0.9,0s0.6,0,0.8,0c0.9-0.1,1.7-0.1,2.2-0.1C11.8,67.6,13.3,68,14.4,68.7z M9,69.1
		c-0.6,0-1,0.1-1.2,0.2v7c0.3,0,0.9,0.1,1.7,0.1c1.2,0,2.2-0.3,2.8-0.9c0.6-0.6,1-1.6,1-2.9c0-1.1-0.3-2-0.9-2.6
		c-0.6-0.6-1.5-0.9-2.8-0.9C9.4,69,9.3,69.1,9,69.1z" fill="#DCC69C"></path>
<path d="M24.4,83.4V69.3l-2-0.2v-1.4h6.8v1.4l-1.9,0.2v14.1l2.1,0.4V85h-6.9v-1.2L24.4,83.4z" fill="#DCC69C"></path>
<path d="M45.6,67.8c0.6,0.1,1.3,0.3,2,0.5l0.5,0.1L47.9,72h-1.6l-0.7-2c-0.4-0.3-0.8-0.5-1.2-0.6
		c-0.4-0.1-1-0.2-1.8-0.2c-1,0-1.9,0.3-2.7,0.9c-0.8,0.6-1.4,1.4-1.9,2.4c-0.5,1.1-0.7,2.3-0.7,3.7c0,1.4,0.2,2.6,0.6,3.8
		s1.1,2.1,1.9,2.8c0.8,0.7,1.8,1.1,3,1.1c1.6,0,2.7-0.4,3.2-1.2l0.7-1.9h1.3v3.4c-0.2,0-0.6,0.1-1.2,0.3c-0.7,0.2-1.4,0.4-2.1,0.5
		s-1.5,0.2-2.4,0.2c-1.6,0-3-0.3-4.2-1c-1.2-0.7-2.2-1.7-2.9-2.9c-0.7-1.3-1-2.7-1-4.4c0-1.8,0.4-3.4,1.2-4.8c0.8-1.4,2-2.5,3.4-3.3
		c1.4-0.8,3-1.2,4.6-1.2C44.3,67.6,45,67.7,45.6,67.8z" fill="#DCC69C"></path>
<path d="M55.3,83.4V69.3l-1.9-0.2v-1.4H60v1.4l-1.8,0.2v6.4h7.8v-6.4l-1.8-0.2v-1.4h6.5v1.4l-1.8,0.2v14.1l2,0.4V85H64
		v-1.2l1.9-0.4v-6.1h-7.8v6.1l1.9,0.4V85h-6.6v-1.2L55.3,83.4z" fill="#DCC69C"></path>
<path d="M77.5,83.4l1-13.9l-2.1-0.2v-1.5h6l3.5,10.9l0.5,1.9l0.5-1.9l3.3-10.8h5.5v1.5l-2.1,0.2l1.2,13.9l1.8,0.4V85
		h-6.3v-1.2l1.8-0.4l-0.8-9.7l-0.1-4.1l-0.4,1.7l-4.4,13.7h-1l-4-11.7c-0.4-1-0.8-2.3-1.2-3.8l-0.1,3.5l-0.5,10.3l2.1,0.4V85h-6.1
		v-1.2L77.5,83.4z" fill="#DCC69C"></path>
<path d="M113.2,68.7c1.1,0.7,2,1.7,2.6,3c0.6,1.3,0.9,2.7,0.9,4.3c0,1.9-0.3,3.5-1,4.9c-0.7,1.4-1.6,2.5-2.8,3.2
		c-1.2,0.8-2.6,1.1-4.1,1.1c-1.5,0-2.9-0.4-4-1.1c-1.2-0.7-2.1-1.7-2.7-3c-0.6-1.3-1-2.7-1-4.3c0-1.8,0.4-3.4,1.1-4.8
		s1.7-2.5,2.9-3.2c1.3-0.8,2.7-1.2,4.2-1.2C110.8,67.6,112.1,68,113.2,68.7z M105.4,71.1c-0.8,1.4-1.2,3.2-1.2,5.6
		c0,1.2,0.2,2.4,0.6,3.5s0.9,2,1.7,2.7c0.7,0.7,1.6,1,2.6,1c1.6,0,2.7-0.7,3.5-2c0.7-1.3,1.1-3.2,1.1-5.6c0-1.3-0.2-2.5-0.6-3.6
		c-0.4-1.1-0.9-2-1.6-2.6s-1.5-1-2.5-1C107.4,69,106.2,69.7,105.4,71.1z" fill="#DCC69C"></path>
<path d="M138.6,69.3l-1.7,0.2V85h-3L127,74l-1.4-3.1l0,12.5l2.2,0.4V85h-6v-1.2l1.8-0.4V69.5l-1.8-0.2v-1.5h4.6
		l7.1,11.9l1.3,2.9V69.5l-1.9-0.2v-1.5h5.5L138.6,69.3L138.6,69.3z" fill="#DCC69C"></path>
<path d="M145.4,83.4V69.3l-1.7-0.2v-1.4h3.2c0.6,0,1.3,0,2.2-0.1c0.2,0,0.5,0,0.9,0c0.4,0,0.7,0,1,0
		c2.8,0,4.9,0.7,6.3,2.2c1.4,1.4,2.1,3.5,2.1,6.1c0,1.9-0.4,3.5-1.1,4.9c-0.7,1.4-1.8,2.5-3.1,3.2c-1.3,0.7-2.8,1.1-4.5,1.1
		c-0.4,0-0.9,0-1.7,0c-0.6,0-1.4-0.1-2.1-0.1h-3.3v-1.2L145.4,83.4z M150.5,83.7c0.3,0,0.5,0,0.6,0c1,0,1.9-0.4,2.7-0.9
		s1.4-1.4,1.9-2.5c0.5-1.1,0.7-2.3,0.7-3.7c0-2.5-0.5-4.3-1.5-5.6c-1-1.3-2.4-1.9-4.3-1.9c-1,0-1.8,0.1-2.4,0.2v14
		C148.8,83.6,149.6,83.7,150.5,83.7z" fill="#DCC69C"></path>
</g>
</svg>